<?xml version="1.0" encoding="UTF-8" standalone="no"?>
<svg width="88px" height="88px" viewBox="0 0 88 88" version="1.1" xmlns="http://www.w3.org/2000/svg" xmlns:xlink="http://www.w3.org/1999/xlink" xmlns:sketch="http://www.bohemiancoding.com/sketch/ns">
    <!-- Generator: Sketch 3.3.2 (12043) - http://www.bohemiancoding.com/sketch -->
    <title>Slice 1</title>
    <desc>Created with Sketch.</desc>
    <defs></defs>
    <g id="Page-1" stroke="none" stroke-width="1" fill="none" fill-rule="evenodd" sketch:type="MSPage">
        <g id="looper" sketch:type="MSLayerGroup">
            <g id="Page-1" sketch:type="MSShapeGroup">
                <g id="infinity">
                    <path d="M30.6804667,0 L57.3195333,0 C66.154,0 70.5701333,0 75.3258,1.50333333 C80.5178,3.39313333 84.6068667,7.4822 86.4966667,12.6742 C88,17.4291333 88,21.8467333 88,30.6804667 L88,57.3195333 C88,66.154 88,70.5701333 86.4966667,75.3258 C84.6068667,80.5178 80.5178,84.6068667 75.3258,86.4959333 C70.5701333,88 66.154,88 57.3195333,88 L30.6804667,88 C21.846,88 17.4291333,88 12.6742,86.4959333 C7.4822,84.6068667 3.39313333,80.5178 1.50333333,75.3258 C0,70.5701333 0,66.154 0,57.3195333 L0,30.6804667 C0,21.8467333 0,17.4291333 1.50333333,12.6742 C3.39313333,7.4822 7.4822,3.39313333 12.6742,1.50333333 C17.4291333,0 21.846,0 30.6804667,0 L30.6804667,0" id="Icon-Shape" fill="#9478FF"></path>
                    <g id="Group" fill="#5F34FF">
                        <path d="M75.1302109,12.887888 C66.8175794,4.57703532 55.7654201,0 44.0104287,0 C32.2554374,0 21.203278,4.57602427 12.8916577,12.886877 C4.58003749,21.1977297 0,32.246513 0,44 C0,55.753487 4.57801495,66.8032813 12.8906465,75.113123 C21.203278,83.4229647 32.2554374,88 44.01144,88 C55.7664313,88 66.8185907,83.4239757 75.1302109,75.113123 C92.2904353,57.9575817 92.289424,30.0434293 75.1302109,12.887888 L75.1302109,12.887888 L75.1302109,12.887888 Z M72.3007533,72.2848816 C64.7440086,79.8399769 54.6962941,84 44.0106601,84 C33.3230988,84 23.2753844,79.8399769 15.7186397,72.2848816 C8.16189497,64.7288229 4,54.684265 4,44 C4,33.315735 8.16189497,23.2702136 15.7186397,15.7151184 C23.2753844,8.16002312 33.3230988,4 44.0087328,4 C54.6943669,4 64.743045,8.16098654 72.2997897,15.7160818 C87.8999095,31.3108697 87.8999095,56.6881669 72.3007533,72.2848816 L72.3007533,72.2848816 L72.3007533,72.2848816 Z" id="Shape"></path>
                        <path d="M59.5651055,28.443944 C55.4087897,24.2885177 49.88271,22 44.0052144,22 C38.1277187,22 32.601639,24.2880121 28.4458289,28.4434385 C24.2900187,32.5988649 22,38.1232565 22,44 C22,49.8767435 24.2890075,55.4016407 28.4453232,59.5565615 C32.601639,63.7114823 38.1277187,66 44.00572,66 C49.8832157,66 55.4092953,63.7119879 59.5651055,59.5565615 C68.1452177,50.9787909 68.144712,37.0217147 59.5651055,28.443944 L59.5651055,28.443944 L59.5651055,28.443944 Z M58.1503766,58.1424408 C54.3720043,61.9199884 49.3481471,64 44.00533,64 C38.6615494,64 33.6376922,61.9199884 29.8593198,58.1424408 C26.0809475,54.3644115 24,49.3421325 24,44 C24,38.6578675 26.0809475,33.6351068 29.8593198,29.8575592 C33.6376922,26.0800116 38.6615494,24 44.0043664,24 C49.3471834,24 54.3715225,26.0804933 58.1498948,29.8580409 C65.9499548,37.6554349 65.9499548,50.3440834 58.1503766,58.1424408 L58.1503766,58.1424408 L58.1503766,58.1424408 Z" id="Shape-Copy"></path>
                        <path d="M54.8098887,36 C50.3085266,36 47.3928253,39.0343143 44.3039947,42.248382 C44.2041907,42.3519355 44.1003132,42.4593968 43.9994908,42.5639272 C43.89765,42.4593968 43.7937724,42.3509586 43.6929501,42.2474051 C40.6051379,39.0343143 37.6884182,36 33.1880744,36 C28.121496,36 24,39.589205 24,44 C24,48.410795 28.1225144,52 33.1880744,52 C37.7963694,52 40.780304,48.8494322 43.9383863,45.5142264 L44.0005092,45.4497497 L44.0605953,45.5122726 C47.219696,48.8484552 50.2015938,52 54.8119256,52 C59.878504,52 64,48.410795 64,44 C64,39.589205 59.8764671,36 54.8098887,36 L54.8098887,36 L54.8098887,36 Z M42.4301245,44.2012456 C39.3382387,47.46709 36.8950785,50.0461595 33.1880744,50.0461595 C29.2447998,50.0461595 26.0368154,47.3342288 26.0368154,44 C26.0368154,40.6657712 29.2447998,37.9538405 33.1880744,37.9538405 C36.796293,37.9538405 39.1793671,40.4322872 42.1958907,43.571132 C42.3354126,43.7157162 42.4749344,43.8612773 42.6154747,44.0068384 L42.4301245,44.2012456 L42.4301245,44.2012456 Z M54.8098887,50.0471364 C51.1018662,50.0471364 48.6597245,47.46709 45.5668203,44.2012456 L45.3835069,44.0078154 C45.5240472,43.8622542 45.6625506,43.71767 45.8010541,43.5730858 C48.8185961,40.4342411 51.2016702,37.9548174 54.8098887,37.9548174 C58.7531634,37.9548174 61.9611477,40.6667481 61.9611477,44.0009769 C61.9611477,47.3352058 58.7531634,50.0471364 54.8098887,50.0471364 L54.8098887,50.0471364 L54.8098887,50.0471364 Z" id="Shape"></path>
                    </g>
                </g>
            </g>
        </g>
    </g>
</svg>